<?xml version="1.0" standalone="no"?><!DOCTYPE svg PUBLIC "-//W3C//DTD SVG 1.1//EN" "http://www.w3.org/Graphics/SVG/1.1/DTD/svg11.dtd"><svg t="1591012434984" class="icon" viewBox="0 0 1024 1024" version="1.1" xmlns="http://www.w3.org/2000/svg" p-id="9913" xmlns:xlink="http://www.w3.org/1999/xlink" width="200" height="200"><defs><style type="text/css"></style></defs><path d="M700.8 411.7c53.4 0 89-35.6 89-89s-35.6-89-89-89-89 35.6-89 89 35.6 89 89 89M83.3 528.5l445-445c11.1-11.1 22.2-16.7 38.9-16.7H901c33.4 0 55.6 22.2 55.6 55.6v333.8c0 16.7-5.6 27.8-16.7 38.9l-445 445c-11.1 11.1-22.2 16.7-38.9 16.7s-27.8-5.6-38.9-16.7L83.3 606.4c-22.2-22.3-22.2-55.7 0-77.9" p-id="9914"></path></svg>